<?xml version='1.0' encoding='utf-8'?>
<mlt title="Anonymous Submission" LC_NUMERIC="de_DE.UTF-8" producer="main_bin" version="6.14.0" root="/home/obiwan/Videos/sound of magic">
 <profile frame_rate_num="30000" sample_aspect_num="1" display_aspect_den="9" colorspace="709" progressive="1" description="HD 1080p 29.97 fps" display_aspect_num="16" frame_rate_den="1001" width="1920" height="1080" sample_aspect_den="1"/>
 <producer id="1" in="00:00:00,000" out="00:01:19,186">
  <property name="length">2374</property>
  <property name="eof">pause</property>
  <property name="resource">/home/obiwan/Pictures/HOMpg1.png</property>
  <property name="ttl">25</property>
  <property name="aspect_ratio">1</property>
  <property name="progressive">1</property>
  <property name="seekable">1</property>
  <property name="meta.media.width">1440</property>
  <property name="meta.media.height">1079</property>
  <property name="mlt_service">qimage</property>
  <property name="kdenlive:duration">150</property>
  <property name="kdenlive:file_size">104444</property>
  <property name="kdenlive:file_hash">aa68bd61a67c17ef64d39a425b691131</property>
  <property name="kdenlive:id">1</property>
  <property name="kdenlive:folderid">-1</property>
 </producer>
 <producer id="2" in="00:00:00,000" out="00:04:38,171">
  <property name="length">8337</property>
  <property name="eof">pause</property>
  <property name="resource">/home/obiwan/Pictures/HOMpg2.png</property>
  <property name="ttl">25</property>
  <property name="aspect_ratio">1</property>
  <property name="progressive">1</property>
  <property name="seekable">1</property>
  <property name="meta.media.width">1439</property>
  <property name="meta.media.height">1079</property>
  <property name="mlt_service">qimage</property>
  <property name="kdenlive:duration">150</property>
  <property name="kdenlive:file_size">141065</property>
  <property name="kdenlive:file_hash">559b0481ebfbeaa70edc2ff18f33d91d</property>
  <property name="kdenlive:id">2</property>
  <property name="kdenlive:folderid">-1</property>
 </producer>
 <producer id="3" in="00:00:00,000" out="00:01:35,369">
  <property name="length">2859</property>
  <property name="eof">pause</property>
  <property name="resource">/home/obiwan/Pictures/HOMpg3.png</property>
  <property name="ttl">25</property>
  <property name="aspect_ratio">1</property>
  <property name="progressive">1</property>
  <property name="seekable">1</property>
  <property name="meta.media.width">1441</property>
  <property name="meta.media.height">1079</property>
  <property name="mlt_service">qimage</property>
  <property name="kdenlive:duration">150</property>
  <property name="kdenlive:file_size">1299418</property>
  <property name="kdenlive:file_hash">9643035d255a9e60066b75932145c214</property>
  <property name="kdenlive:id">3</property>
  <property name="kdenlive:folderid">-1</property>
 </producer>
 <producer id="4" in="00:00:00,000" out="00:02:57,558">
  <property name="length">5322</property>
  <property name="eof">pause</property>
  <property name="resource">/home/obiwan/Pictures/HOMpg4.png</property>
  <property name="ttl">25</property>
  <property name="aspect_ratio">1</property>
  <property name="progressive">1</property>
  <property name="seekable">1</property>
  <property name="meta.media.width">1441</property>
  <property name="meta.media.height">1079</property>
  <property name="mlt_service">qimage</property>
  <property name="kdenlive:duration">150</property>
  <property name="kdenlive:file_size">180441</property>
  <property name="kdenlive:file_hash">08c830c8623a112477c31862928b51a9</property>
  <property name="kdenlive:id">4</property>
  <property name="kdenlive:folderid">-1</property>
 </producer>
 <producer id="5" in="00:00:00,000" out="00:02:25,659">
  <property name="length">4366</property>
  <property name="eof">pause</property>
  <property name="resource">/home/obiwan/Pictures/HOMpg5.png</property>
  <property name="ttl">25</property>
  <property name="aspect_ratio">1</property>
  <property name="progressive">1</property>
  <property name="seekable">1</property>
  <property name="meta.media.width">1440</property>
  <property name="meta.media.height">1080</property>
  <property name="mlt_service">qimage</property>
  <property name="kdenlive:duration">150</property>
  <property name="kdenlive:file_size">233023</property>
  <property name="kdenlive:file_hash">eae2e703972ea29bb0de5482a76dfd33</property>
  <property name="kdenlive:id">5</property>
  <property name="kdenlive:folderid">-1</property>
 </producer>
 <producer title="Anonymous Submission" id="6" in="00:00:00,000" out="00:28:12,779">
  <property name="length">00:28:13;10</property>
  <property name="eof">pause</property>
  <property name="resource">SoundOfMagic_Vortrag_Leipzig_2019.mp4</property>
  <property name="audio_index">1</property>
  <property name="video_index">0</property>
  <property name="mute_on_pause">1</property>
  <property name="mlt_service">avformat-novalidate</property>
  <property name="meta.media.nb_streams">2</property>
  <property name="meta.media.0.stream.type">video</property>
  <property name="meta.media.0.stream.frame_rate">25</property>
  <property name="meta.media.0.stream.sample_aspect_ratio">0</property>
  <property name="meta.media.0.codec.width">1280</property>
  <property name="meta.media.0.codec.height">1024</property>
  <property name="meta.media.0.codec.rotate">0</property>
  <property name="meta.media.0.codec.frame_rate">25</property>
  <property name="meta.media.0.codec.pix_fmt">yuv420p</property>
  <property name="meta.media.0.codec.sample_aspect_ratio">1,42222</property>
  <property name="meta.media.0.codec.colorspace">709</property>
  <property name="meta.media.0.codec.color_trc">1</property>
  <property name="meta.media.0.codec.name">h264</property>
  <property name="meta.media.0.codec.long_name">H.264 / AVC / MPEG-4 AVC / MPEG-4 part 10</property>
  <property name="meta.media.0.codec.bit_rate">4001033</property>
  <property name="meta.attr.0.stream.creation_time.markup">2019-03-26T18:00:08.000000Z</property>
  <property name="meta.attr.0.stream.language.markup">eng</property>
  <property name="meta.attr.0.stream.encoder.markup">AVC Coding</property>
  <property name="meta.media.1.stream.type">audio</property>
  <property name="meta.media.1.codec.sample_fmt">fltp</property>
  <property name="meta.media.1.codec.sample_rate">44100</property>
  <property name="meta.media.1.codec.channels">2</property>
  <property name="meta.media.1.codec.name">aac</property>
  <property name="meta.media.1.codec.long_name">AAC (Advanced Audio Coding)</property>
  <property name="meta.media.1.codec.bit_rate">131051</property>
  <property name="meta.attr.1.stream.creation_time.markup">2019-03-26T18:00:08.000000Z</property>
  <property name="meta.attr.1.stream.language.markup">eng</property>
  <property name="meta.attr.major_brand.markup">isom</property>
  <property name="meta.attr.minor_version.markup">0</property>
  <property name="meta.attr.compatible_brands.markup">isomavc1</property>
  <property name="meta.attr.creation_time.markup">2019-03-26T18:00:08.000000Z</property>
  <property name="seekable">1</property>
  <property name="meta.media.sample_aspect_num">64</property>
  <property name="meta.media.sample_aspect_den">45</property>
  <property name="aspect_ratio">1,42222</property>
  <property name="meta.media.frame_rate_num">25</property>
  <property name="meta.media.frame_rate_den">1</property>
  <property name="meta.media.colorspace">709</property>
  <property name="meta.media.color_trc">1</property>
  <property name="meta.media.width">1280</property>
  <property name="meta.media.height">1024</property>
  <property name="meta.media.top_field_first">0</property>
  <property name="meta.media.progressive">1</property>
  <property name="kdenlive:file_size">875103919</property>
  <property name="kdenlive:file_hash">0324e73d1a9f862d748b96d11c5ea0eb</property>
  <property name="global_feed">1</property>
  <property name="kdenlive:id">6</property>
  <property name="kdenlive:folderid">-1</property>
 </producer>
 <producer id="7" in="00:00:00,000" out="00:00:42,743">
  <property name="length">1282</property>
  <property name="eof">pause</property>
  <property name="resource">/home/obiwan/Pictures/HOMpg00.png</property>
  <property name="ttl">25</property>
  <property name="aspect_ratio">1</property>
  <property name="progressive">1</property>
  <property name="seekable">1</property>
  <property name="meta.media.width">1437</property>
  <property name="meta.media.height">1079</property>
  <property name="mlt_service">qimage</property>
  <property name="kdenlive:duration">150</property>
  <property name="kdenlive:file_size">478395</property>
  <property name="kdenlive:file_hash">45f7dc21d50968bb97b173d0c756e140</property>
  <property name="kdenlive:id">7</property>
  <property name="kdenlive:folderid">-1</property>
 </producer>
 <producer id="9" in="00:00:00,000" out="00:00:35,736">
  <property name="length">1072</property>
  <property name="eof">pause</property>
  <property name="resource">/home/obiwan/Pictures/Screenshot from 2019-04-11 22-09-17.png</property>
  <property name="ttl">25</property>
  <property name="aspect_ratio">1</property>
  <property name="progressive">1</property>
  <property name="seekable">1</property>
  <property name="meta.media.width">1439</property>
  <property name="meta.media.height">1079</property>
  <property name="mlt_service">qimage</property>
  <property name="kdenlive:duration">150</property>
  <property name="kdenlive:file_size">126516</property>
  <property name="kdenlive:file_hash">d1548a93d95e8ca1a7f390b5c4eaf3e1</property>
  <property name="kdenlive:id">9</property>
  <property name="kdenlive:folderid">-1</property>
 </producer>
 <producer title="Anonymous Submission" id="10" in="00:00:00,000" out="00:01:22,222">
  <property name="length">00:01:22;07</property>
  <property name="eof">pause</property>
  <property name="resource">Wie funktioniert SOM.mp4</property>
  <property name="audio_index">1</property>
  <property name="video_index">0</property>
  <property name="mute_on_pause">1</property>
  <property name="mlt_service">avformat-novalidate</property>
  <property name="meta.media.nb_streams">2</property>
  <property name="meta.media.0.stream.type">video</property>
  <property name="meta.media.0.stream.frame_rate">60,0002</property>
  <property name="meta.media.0.stream.sample_aspect_ratio">0</property>
  <property name="meta.media.0.codec.width">1920</property>
  <property name="meta.media.0.codec.height">1080</property>
  <property name="meta.media.0.codec.rotate">0</property>
  <property name="meta.media.0.codec.frame_rate">60</property>
  <property name="meta.media.0.codec.pix_fmt">yuv420p</property>
  <property name="meta.media.0.codec.sample_aspect_ratio">1</property>
  <property name="meta.media.0.codec.colorspace">709</property>
  <property name="meta.media.0.codec.name">h264</property>
  <property name="meta.media.0.codec.long_name">H.264 / AVC / MPEG-4 AVC / MPEG-4 part 10</property>
  <property name="meta.media.0.codec.bit_rate">9088867</property>
  <property name="meta.attr.0.stream.creation_time.markup">2019-02-15T15:12:05.000000Z</property>
  <property name="meta.attr.0.stream.language.markup">eng</property>
  <property name="meta.attr.0.stream.handler_name.markup">Mainconcept Video Media Handler</property>
  <property name="meta.attr.0.stream.encoder.markup">AVC Coding</property>
  <property name="meta.media.1.stream.type">audio</property>
  <property name="meta.media.1.codec.sample_fmt">fltp</property>
  <property name="meta.media.1.codec.sample_rate">48000</property>
  <property name="meta.media.1.codec.channels">2</property>
  <property name="meta.media.1.codec.name">aac</property>
  <property name="meta.media.1.codec.long_name">AAC (Advanced Audio Coding)</property>
  <property name="meta.media.1.codec.bit_rate">189375</property>
  <property name="meta.attr.1.stream.creation_time.markup">2019-02-15T15:12:05.000000Z</property>
  <property name="meta.attr.1.stream.language.markup">eng</property>
  <property name="meta.attr.1.stream.handler_name.markup">#Mainconcept MP4 Sound Media Handler</property>
  <property name="meta.attr.major_brand.markup">mp42</property>
  <property name="meta.attr.minor_version.markup">0</property>
  <property name="meta.attr.compatible_brands.markup">mp42mp41</property>
  <property name="meta.attr.creation_time.markup">2019-02-15T15:12:05.000000Z</property>
  <property name="seekable">1</property>
  <property name="meta.media.sample_aspect_num">1</property>
  <property name="meta.media.sample_aspect_den">1</property>
  <property name="aspect_ratio">1</property>
  <property name="meta.media.frame_rate_num">295920000</property>
  <property name="meta.media.frame_rate_den">4931981</property>
  <property name="meta.media.colorspace">709</property>
  <property name="meta.media.color_trc">2</property>
  <property name="meta.media.width">1920</property>
  <property name="meta.media.height">1080</property>
  <property name="meta.media.top_field_first">0</property>
  <property name="meta.media.progressive">1</property>
  <property name="kdenlive:file_size">95498033</property>
  <property name="kdenlive:file_hash">9d194f4479b98fb2ac0786b4607700a7</property>
  <property name="global_feed">1</property>
  <property name="kdenlive:id">10</property>
  <property name="kdenlive:folderid">-1</property>
 </producer>
 <producer id="11" in="00:00:00,000" out="00:03:57,758">
  <property name="length">7126</property>
  <property name="eof">pause</property>
  <property name="resource">/home/obiwan/Pictures/HOMpg6.png</property>
  <property name="ttl">25</property>
  <property name="aspect_ratio">1</property>
  <property name="progressive">1</property>
  <property name="seekable">1</property>
  <property name="meta.media.width">1439</property>
  <property name="meta.media.height">1079</property>
  <property name="mlt_service">qimage</property>
  <property name="kdenlive:duration">150</property>
  <property name="kdenlive:file_size">241652</property>
  <property name="kdenlive:file_hash">a059a732ec033ea95f39cb1667fb409e</property>
  <property name="kdenlive:id">11</property>
  <property name="kdenlive:folderid">-1</property>
 </producer>
 <producer id="12" in="00:00:00,000" out="00:03:32,900">
  <property name="length">6381</property>
  <property name="eof">pause</property>
  <property name="resource">/home/obiwan/Pictures/HOMpg7.png</property>
  <property name="ttl">25</property>
  <property name="aspect_ratio">1</property>
  <property name="progressive">1</property>
  <property name="seekable">1</property>
  <property name="meta.media.width">1441</property>
  <property name="meta.media.height">1079</property>
  <property name="mlt_service">qimage</property>
  <property name="kdenlive:duration">150</property>
  <property name="kdenlive:file_size">168234</property>
  <property name="kdenlive:file_hash">aae8531cda0dc75eac1efe2138b73ba4</property>
  <property name="kdenlive:id">12</property>
  <property name="kdenlive:folderid">-1</property>
 </producer>
 <producer id="13" in="00:00:00,000" out="00:04:10,010">
  <property name="length">7493</property>
  <property name="eof">pause</property>
  <property name="resource">/home/obiwan/Pictures/HOMpg8.png</property>
  <property name="ttl">25</property>
  <property name="aspect_ratio">1</property>
  <property name="progressive">1</property>
  <property name="seekable">1</property>
  <property name="meta.media.width">1440</property>
  <property name="meta.media.height">1079</property>
  <property name="mlt_service">qimage</property>
  <property name="kdenlive:duration">150</property>
  <property name="kdenlive:file_size">128554</property>
  <property name="kdenlive:file_hash">46b0f6bbd1e6a2b422810e4c8d6a3801</property>
  <property name="kdenlive:id">13</property>
  <property name="kdenlive:folderid">-1</property>
 </producer>
 <producer id="14" in="00:00:00,000" out="00:01:51,118">
  <property name="length">3331</property>
  <property name="eof">pause</property>
  <property name="resource">/home/obiwan/Pictures/HOMpg9.png</property>
  <property name="ttl">25</property>
  <property name="aspect_ratio">1</property>
  <property name="progressive">1</property>
  <property name="seekable">1</property>
  <property name="meta.media.width">1440</property>
  <property name="meta.media.height">1079</property>
  <property name="mlt_service">qimage</property>
  <property name="kdenlive:duration">150</property>
  <property name="kdenlive:file_size">247870</property>
  <property name="kdenlive:file_hash">29458f8dbad5138b254689fafc979da8</property>
  <property name="kdenlive:id">14</property>
  <property name="kdenlive:folderid">-1</property>
 </producer>
 <producer id="15" in="00:00:00,000" out="00:00:30,497">
  <property name="length">915</property>
  <property name="eof">pause</property>
  <property name="resource">/home/obiwan/Pictures/HOMpg10.png</property>
  <property name="ttl">25</property>
  <property name="aspect_ratio">1</property>
  <property name="progressive">1</property>
  <property name="seekable">1</property>
  <property name="meta.media.width">1438</property>
  <property name="meta.media.height">1078</property>
  <property name="mlt_service">qimage</property>
  <property name="kdenlive:duration">150</property>
  <property name="kdenlive:file_size">579431</property>
  <property name="kdenlive:file_hash">4ac28e90b4f2320e1fe24648f4a9793f</property>
  <property name="kdenlive:id">15</property>
  <property name="kdenlive:folderid">-1</property>
 </producer>
 <producer id="19" in="00:00:00,000" out="00:00:06,406">
  <property name="length">193</property>
  <property name="eof">pause</property>
  <property name="resource">/home/obiwan/Documents/titles/schnitt_illustration.kdenlivetitle</property>
  <property name="progressive">1</property>
  <property name="aspect_ratio">1</property>
  <property name="seekable">1</property>
  <property name="mlt_service">kdenlivetitle</property>
  <property name="kdenlive:folderid">-1</property>
  <property name="kdenlive:duration">126</property>
  <property name="force_reload">0</property>
  <property name="meta.media.width">1920</property>
  <property name="meta.media.height">1080</property>
  <property name="kdenlive:file_hash">d41d8cd98f00b204e9800998ecf8427e</property>
  <property name="kdenlive:id">19</property>
 </producer>
 <producer id="20" in="00:00:00,000" out="00:00:07,407">
  <property name="length">223</property>
  <property name="eof">pause</property>
  <property name="resource">/home/obiwan/Documents/titles/logo_try.kdenlivetitle</property>
  <property name="progressive">1</property>
  <property name="aspect_ratio">1</property>
  <property name="seekable">1</property>
  <property name="mlt_service">kdenlivetitle</property>
  <property name="kdenlive:folderid">-1</property>
  <property name="kdenlive:duration">151</property>
  <property name="force_reload">0</property>
  <property name="meta.media.width">1920</property>
  <property name="meta.media.height">1080</property>
  <property name="kdenlive:file_hash">d41d8cd98f00b204e9800998ecf8427e</property>
  <property name="kdenlive:id">20</property>
 </producer>
 <producer id="23" in="00:00:00,000" out="00:00:05,005">
  <property name="length">151</property>
  <property name="eof">pause</property>
  <property name="resource">/home/obiwan/Documents/titles/intro_try.kdenlivetitle</property>
  <property name="progressive">1</property>
  <property name="aspect_ratio">1</property>
  <property name="seekable">1</property>
  <property name="mlt_service">kdenlivetitle</property>
  <property name="kdenlive:folderid">-1</property>
  <property name="kdenlive:duration">151</property>
  <property name="force_reload">0</property>
  <property name="meta.media.width">1920</property>
  <property name="meta.media.height">1080</property>
  <property name="kdenlive:file_hash">d41d8cd98f00b204e9800998ecf8427e</property>
  <property name="kdenlive:id">23</property>
 </producer>
 <producer id="24" in="00:00:00,000" out="00:00:05,205">
  <property name="length">157</property>
  <property name="eof">pause</property>
  <property name="resource">/home/obiwan/Documents/titles/danktry.kdenlivetitle</property>
  <property name="progressive">1</property>
  <property name="aspect_ratio">1</property>
  <property name="seekable">1</property>
  <property name="mlt_service">kdenlivetitle</property>
  <property name="kdenlive:folderid">-1</property>
  <property name="kdenlive:duration">91</property>
  <property name="force_reload">0</property>
  <property name="meta.media.width">1920</property>
  <property name="meta.media.height">1080</property>
  <property name="kdenlive:file_hash">d41d8cd98f00b204e9800998ecf8427e</property>
  <property name="kdenlive:id">24</property>
 </producer>
 <playlist id="main_bin">
  <property name="kdenlive:docproperties.activeTrack">6</property>
  <property name="kdenlive:docproperties.audioTarget">1</property>
  <property name="kdenlive:docproperties.audiotargettrack">2</property>
  <property name="kdenlive:docproperties.decimalPoint">,</property>
  <property name="kdenlive:docproperties.dirtypreviewchunks"/>
  <property name="kdenlive:docproperties.disablepreview">0</property>
  <property name="kdenlive:docproperties.documentid">1554968364827</property>
  <property name="kdenlive:docproperties.enableTimelineZone">0</property>
  <property name="kdenlive:docproperties.enableexternalproxy">0</property>
  <property name="kdenlive:docproperties.enableproxy">1</property>
  <property name="kdenlive:docproperties.externalproxyparams"/>
  <property name="kdenlive:docproperties.generateimageproxy">0</property>
  <property name="kdenlive:docproperties.generateproxy">0</property>
  <property name="kdenlive:docproperties.groups">[
    {
        "children": [
            {
                "data": "6:6556",
                "leaf": "clip",
                "type": "Leaf"
            },
            {
                "data": "1:6556",
                "leaf": "clip",
                "type": "Leaf"
            }
        ],
        "type": "AVSplit"
    },
    {
        "children": [
            {
                "data": "6:145",
                "leaf": "clip",
                "type": "Leaf"
            },
            {
                "data": "1:145",
                "leaf": "clip",
                "type": "Leaf"
            }
        ],
        "type": "AVSplit"
    },
    {
        "children": [
            {
                "data": "5:50001",
                "leaf": "clip",
                "type": "Leaf"
            },
            {
                "data": "2:50001",
                "leaf": "clip",
                "type": "Leaf"
            }
        ],
        "type": "AVSplit"
    },
    {
        "children": [
            {
                "data": "5:29123",
                "leaf": "clip",
                "type": "Leaf"
            },
            {
                "data": "2:29123",
                "leaf": "clip",
                "type": "Leaf"
            }
        ],
        "type": "AVSplit"
    },
    {
        "children": [
            {
                "data": "7:1313",
                "leaf": "clip",
                "type": "Leaf"
            },
            {
                "data": "0:1313",
                "leaf": "clip",
                "type": "Leaf"
            }
        ],
        "type": "AVSplit"
    },
    {
        "children": [
            {
                "data": "5:3778",
                "leaf": "clip",
                "type": "Leaf"
            },
            {
                "data": "2:3778",
                "leaf": "clip",
                "type": "Leaf"
            }
        ],
        "type": "AVSplit"
    }
]
</property>
  <property name="kdenlive:docproperties.kdenliveversion">19.04.0</property>
  <property name="kdenlive:docproperties.position">6490</property>
  <property name="kdenlive:docproperties.previewchunks"/>
  <property name="kdenlive:docproperties.previewextension"/>
  <property name="kdenlive:docproperties.previewparameters"/>
  <property name="kdenlive:docproperties.profile">atsc_1080p_2997</property>
  <property name="kdenlive:docproperties.proxyextension">mkv</property>
  <property name="kdenlive:docproperties.proxyimageminsize">2000</property>
  <property name="kdenlive:docproperties.proxyimagesize">800</property>
  <property name="kdenlive:docproperties.proxyminsize">1000</property>
  <property name="kdenlive:docproperties.proxyparams">-vf yadif,scale=960:-2 -qscale 3 -vcodec mjpeg -acodec pcm_s16le</property>
  <property name="kdenlive:docproperties.renderaudioquality">192</property>
  <property name="kdenlive:docproperties.rendercategory">Generic (HD for web, mobile devices...)</property>
  <property name="kdenlive:docproperties.renderendguide">-1</property>
  <property name="kdenlive:docproperties.renderexportaudio">0</property>
  <property name="kdenlive:docproperties.renderguide">0</property>
  <property name="kdenlive:docproperties.renderplay">0</property>
  <property name="kdenlive:docproperties.renderprofile">MP4 - the dominating format (H264/AAC)</property>
  <property name="kdenlive:docproperties.renderquality">15</property>
  <property name="kdenlive:docproperties.renderratio">1</property>
  <property name="kdenlive:docproperties.renderrescale">0</property>
  <property name="kdenlive:docproperties.renderrescaleheight">180</property>
  <property name="kdenlive:docproperties.renderrescalewidth">320</property>
  <property name="kdenlive:docproperties.renderscanning">0</property>
  <property name="kdenlive:docproperties.renderspeed">2</property>
  <property name="kdenlive:docproperties.renderstartguide">-1</property>
  <property name="kdenlive:docproperties.rendertcoverlay">0</property>
  <property name="kdenlive:docproperties.rendertctype">0</property>
  <property name="kdenlive:docproperties.rendertwopass">0</property>
  <property name="kdenlive:docproperties.renderurl">/home/obiwan/Documents/jirkavortrag_3.mp4</property>
  <property name="kdenlive:docproperties.renderzone">0</property>
  <property name="kdenlive:docproperties.scrollPos">3960</property>
  <property name="kdenlive:docproperties.version">0.98</property>
  <property name="kdenlive:docproperties.verticalzoom">1</property>
  <property name="kdenlive:docproperties.videoTarget">2</property>
  <property name="kdenlive:docproperties.videotargettrack">3</property>
  <property name="kdenlive:docproperties.zonein">0</property>
  <property name="kdenlive:docproperties.zoneout">3226</property>
  <property name="kdenlive:docproperties.zoom">8</property>
  <property name="kdenlive:documentnotes"/>
  <property name="xml_retain">1</property>
  <entry producer="1" in="00:00:00,000" out="00:01:19,186"/>
  <entry producer="2" in="00:00:00,000" out="00:04:38,171"/>
  <entry producer="3" in="00:00:00,000" out="00:01:35,369"/>
  <entry producer="4" in="00:00:00,000" out="00:02:57,558"/>
  <entry producer="5" in="00:00:00,000" out="00:02:25,659"/>
  <entry producer="6" in="00:00:00,000" out="00:28:12,779"/>
  <entry producer="7" in="00:00:00,000" out="00:00:42,743"/>
  <entry producer="9" in="00:00:00,000" out="00:00:22,856"/>
  <entry producer="10" in="00:00:00,000" out="00:01:22,222"/>
  <entry producer="11" in="00:00:00,000" out="00:03:57,758"/>
  <entry producer="12" in="00:00:00,000" out="00:03:32,900"/>
  <entry producer="13" in="00:00:00,000" out="00:04:10,010"/>
  <entry producer="14" in="00:00:00,000" out="00:01:51,118"/>
  <entry producer="15" in="00:00:00,000" out="00:00:30,497"/>
  <entry producer="19" in="00:00:00,000" out="00:00:06,406"/>
  <entry producer="20" in="00:00:00,000" out="00:00:07,407"/>
  <entry producer="23" in="00:00:00,000" out="00:00:05,005"/>
  <entry producer="24" in="00:00:00,000" out="00:00:05,205"/>
 </playlist>
 <producer id="black_track" in="00:00:00,000" out="00:44:43,944">
  <property name="length">2147483647</property>
  <property name="eof">continue</property>
  <property name="resource">black</property>
  <property name="aspect_ratio">1</property>
  <property name="mlt_service">color</property>
  <property name="set.test_audio">0</property>
 </producer>
 <producer title="Anonymous Submission" id="10_playlist5" in="00:00:00,000" out="00:01:22,222">
  <property name="length">00:01:22;07</property>
  <property name="eof">pause</property>
  <property name="resource">Wie funktioniert SOM.mp4</property>
  <property name="audio_index">1</property>
  <property name="video_index">0</property>
  <property name="mute_on_pause">1</property>
  <property name="mlt_service">avformat-novalidate</property>
  <property name="seekable">1</property>
  <property name="aspect_ratio">1</property>
  <property name="kdenlive:file_size">95498033</property>
  <property name="kdenlive:file_hash">9d194f4479b98fb2ac0786b4607700a7</property>
  <property name="global_feed">1</property>
  <property name="xml">was here</property>
  <property name="meta.media.nb_streams">2</property>
  <property name="meta.media.0.stream.type">video</property>
  <property name="meta.media.0.stream.frame_rate">60,0002</property>
  <property name="meta.media.0.stream.sample_aspect_ratio">0</property>
  <property name="meta.media.0.codec.width">1920</property>
  <property name="meta.media.0.codec.height">1080</property>
  <property name="meta.media.0.codec.rotate">0</property>
  <property name="meta.media.0.codec.frame_rate">60</property>
  <property name="meta.media.0.codec.pix_fmt">yuv420p</property>
  <property name="meta.media.0.codec.sample_aspect_ratio">1</property>
  <property name="meta.media.0.codec.colorspace">709</property>
  <property name="meta.media.0.codec.name">h264</property>
  <property name="meta.media.0.codec.long_name">H.264 / AVC / MPEG-4 AVC / MPEG-4 part 10</property>
  <property name="meta.media.0.codec.bit_rate">9088867</property>
  <property name="meta.attr.0.stream.creation_time.markup">2019-02-15T15:12:05.000000Z</property>
  <property name="meta.attr.0.stream.language.markup">eng</property>
  <property name="meta.attr.0.stream.handler_name.markup">Mainconcept Video Media Handler</property>
  <property name="meta.attr.0.stream.encoder.markup">AVC Coding</property>
  <property name="meta.media.1.stream.type">audio</property>
  <property name="meta.media.1.codec.sample_fmt">fltp</property>
  <property name="meta.media.1.codec.sample_rate">48000</property>
  <property name="meta.media.1.codec.channels">2</property>
  <property name="meta.media.1.codec.name">aac</property>
  <property name="meta.media.1.codec.long_name">AAC (Advanced Audio Coding)</property>
  <property name="meta.media.1.codec.bit_rate">189375</property>
  <property name="meta.attr.1.stream.creation_time.markup">2019-02-15T15:12:05.000000Z</property>
  <property name="meta.attr.1.stream.language.markup">eng</property>
  <property name="meta.attr.1.stream.handler_name.markup">#Mainconcept MP4 Sound Media Handler</property>
  <property name="meta.attr.major_brand.markup">mp42</property>
  <property name="meta.attr.minor_version.markup">0</property>
  <property name="meta.attr.compatible_brands.markup">mp42mp41</property>
  <property name="meta.attr.creation_time.markup">2019-02-15T15:12:05.000000Z</property>
  <property name="meta.media.sample_aspect_num">1</property>
  <property name="meta.media.sample_aspect_den">1</property>
  <property name="meta.media.frame_rate_num">295920000</property>
  <property name="meta.media.frame_rate_den">4931981</property>
  <property name="meta.media.colorspace">709</property>
  <property name="meta.media.color_trc">2</property>
  <property name="meta.media.width">1920</property>
  <property name="meta.media.height">1080</property>
  <property name="meta.media.top_field_first">0</property>
  <property name="meta.media.progressive">1</property>
  <property name="kdenlive:id">10</property>
 </producer>
 <playlist id="playlist0">
  <blank length="00:00:43,810"/>
  <entry producer="10_playlist5" in="00:00:00,000" out="00:01:22,222">
   <property name="kdenlive:id">10</property>
  </entry>
 </playlist>
 <playlist id="playlist1"/>
 <tractor id="tractor0" in="00:00:00,000" out="00:02:06,039">
  <property name="kdenlive:track_name">extra audio</property>
  <property name="kdenlive:audio_track">1</property>
  <property name="kdenlive:trackheight">60</property>
  <property name="kdenlive:thumbs_format"/>
  <property name="kdenlive:audio_rec"/>
  <track hide="video" producer="playlist0"/>
  <track hide="video" producer="playlist1"/>
 </tractor>
 <producer title="Anonymous Submission" id="6_playlist4" in="00:00:00,000" out="00:28:12,779">
  <property name="length">00:28:13;01</property>
  <property name="eof">pause</property>
  <property name="resource">SoundOfMagic_Vortrag_Leipzig_2019.mp4</property>
  <property name="audio_index">1</property>
  <property name="video_index">0</property>
  <property name="mute_on_pause">1</property>
  <property name="mlt_service">avformat-novalidate</property>
  <property name="seekable">1</property>
  <property name="aspect_ratio">1,42222</property>
  <property name="kdenlive:file_size">875103919</property>
  <property name="kdenlive:file_hash">0324e73d1a9f862d748b96d11c5ea0eb</property>
  <property name="global_feed">1</property>
  <property name="xml">was here</property>
  <property name="meta.media.nb_streams">2</property>
  <property name="meta.media.0.stream.type">video</property>
  <property name="meta.media.0.stream.frame_rate">25</property>
  <property name="meta.media.0.stream.sample_aspect_ratio">0</property>
  <property name="meta.media.0.codec.width">1280</property>
  <property name="meta.media.0.codec.height">1024</property>
  <property name="meta.media.0.codec.rotate">0</property>
  <property name="meta.media.0.codec.frame_rate">25</property>
  <property name="meta.media.0.codec.pix_fmt">yuv420p</property>
  <property name="meta.media.0.codec.sample_aspect_ratio">1,42222</property>
  <property name="meta.media.0.codec.colorspace">709</property>
  <property name="meta.media.0.codec.color_trc">1</property>
  <property name="meta.media.0.codec.name">h264</property>
  <property name="meta.media.0.codec.long_name">H.264 / AVC / MPEG-4 AVC / MPEG-4 part 10</property>
  <property name="meta.media.0.codec.bit_rate">4001033</property>
  <property name="meta.attr.0.stream.creation_time.markup">2019-03-26T18:00:08.000000Z</property>
  <property name="meta.attr.0.stream.language.markup">eng</property>
  <property name="meta.attr.0.stream.encoder.markup">AVC Coding</property>
  <property name="meta.media.1.stream.type">audio</property>
  <property name="meta.media.1.codec.sample_fmt">fltp</property>
  <property name="meta.media.1.codec.sample_rate">44100</property>
  <property name="meta.media.1.codec.channels">2</property>
  <property name="meta.media.1.codec.name">aac</property>
  <property name="meta.media.1.codec.long_name">AAC (Advanced Audio Coding)</property>
  <property name="meta.media.1.codec.bit_rate">131051</property>
  <property name="meta.attr.1.stream.creation_time.markup">2019-03-26T18:00:08.000000Z</property>
  <property name="meta.attr.1.stream.language.markup">eng</property>
  <property name="meta.attr.major_brand.markup">isom</property>
  <property name="meta.attr.minor_version.markup">0</property>
  <property name="meta.attr.compatible_brands.markup">isomavc1</property>
  <property name="meta.attr.creation_time.markup">2019-03-26T18:00:08.000000Z</property>
  <property name="meta.media.sample_aspect_num">64</property>
  <property name="meta.media.sample_aspect_den">45</property>
  <property name="meta.media.frame_rate_num">25</property>
  <property name="meta.media.frame_rate_den">1</property>
  <property name="meta.media.colorspace">709</property>
  <property name="meta.media.color_trc">1</property>
  <property name="meta.media.width">1280</property>
  <property name="meta.media.height">1024</property>
  <property name="meta.media.top_field_first">0</property>
  <property name="meta.media.progressive">1</property>
  <property name="kdenlive:id">6</property>
 </producer>
 <playlist id="playlist2">
  <blank length="00:00:04,838"/>
  <entry producer="6_playlist4" in="00:00:03,470" out="00:00:42,409">
   <property name="kdenlive:id">6</property>
   <filter id="filter14" in="00:00:03,470" out="00:00:42,409">
    <property name="background">colour:0x00000000</property>
    <property name="mlt_service">affine</property>
    <property name="kdenlive_id">pan_zoom</property>
    <property name="tag">affine</property>
    <property name="kdenlive_ix">1</property>
    <property name="transition.geometry">0=-3100/-485:3840x2160:100;37=-2900/-485:3840x2160:100;69=-2700/-485:3840x2160:100;131=-2700/-485:3840x2160:100;171=-2700/-485:3840x2160:100;247=-2747/-700:3840x2160:100;263=-2937/-700:3840x2160:100;279=-2937/-700:3840x2160:100;322=-2600/-700:3840x2160:100;360=-2600/-700:3840x2160:100;404=-2500/-700:3840x2160:100;556=-2600/-700:3840x2160:100;594=-2200/-700:3840x2160:100;651=-2200/-700:3840x2160:100;678=-2500/-700:3840x2160:100;744=-2925/-700:3840x2160:100;770=-2925/-700:3840x2160:100;818=-2861/-700:3840x2160:100;1008=-2861/-700:3840x2160:100;1063=-2600/-700:3840x2160:100;1099=-3050/-700:3840x2160:100;1129=-3350/-700:3840x2160:100</property>
    <property name="transition.distort">0</property>
    <property name="kdenlive:sync_in_out">1</property>
    <property name="kdenlive_info"/>
    <property name="use_normalised">0</property>
   </filter>
   <filter id="filter15">
    <property name="version">0,3</property>
    <property name="mlt_service">frei0r.sopsat</property>
    <property name="kdenlive_id">frei0r.sopsat</property>
    <property name="tag">frei0r.sopsat</property>
    <property name="kdenlive_ix">2</property>
    <property name="rSlope">104=0,05</property>
    <property name="gSlope">104=0,05</property>
    <property name="bSlope">104=0,05</property>
    <property name="aSlope">104=0,05</property>
    <property name="rOffset">104=0,5</property>
    <property name="gOffset">104=0,5</property>
    <property name="bOffset">104=0,5</property>
    <property name="aOffset">104=0,5</property>
    <property name="rPower">104=0,05</property>
    <property name="gPower">104=0,05</property>
    <property name="bPower">104=0,05</property>
    <property name="aPower">104=0,05</property>
    <property name="saturation">104=0,132</property>
    <property name="kdenlive_info"/>
   </filter>
  </entry>
  <blank length="00:02:54,955"/>
  <entry producer="6" in="00:03:54,988" out="00:16:27,928">
   <property name="kdenlive:id">6</property>
  </entry>
 </playlist>
 <playlist id="playlist3"/>
 <tractor id="tractor1" in="00:00:00,000" out="00:16:11,712">
  <property name="kdenlive:track_name">extra audio</property>
  <property name="kdenlive:audio_track">1</property>
  <property name="kdenlive:trackheight">60</property>
  <property name="kdenlive:thumbs_format"/>
  <property name="kdenlive:audio_rec"/>
  <track hide="video" producer="playlist2"/>
  <track hide="video" producer="playlist3"/>
 </tractor>
 <producer title="Anonymous Submission" id="6_playlist3" in="00:00:00,000" out="00:28:12,779">
  <property name="length">00:28:13;01</property>
  <property name="eof">pause</property>
  <property name="resource">SoundOfMagic_Vortrag_Leipzig_2019.mp4</property>
  <property name="audio_index">1</property>
  <property name="video_index">0</property>
  <property name="mute_on_pause">1</property>
  <property name="mlt_service">avformat-novalidate</property>
  <property name="seekable">1</property>
  <property name="aspect_ratio">1,42222</property>
  <property name="kdenlive:file_size">875103919</property>
  <property name="kdenlive:file_hash">0324e73d1a9f862d748b96d11c5ea0eb</property>
  <property name="global_feed">1</property>
  <property name="xml">was here</property>
  <property name="meta.media.nb_streams">2</property>
  <property name="meta.media.0.stream.type">video</property>
  <property name="meta.media.0.stream.frame_rate">25</property>
  <property name="meta.media.0.stream.sample_aspect_ratio">0</property>
  <property name="meta.media.0.codec.width">1280</property>
  <property name="meta.media.0.codec.height">1024</property>
  <property name="meta.media.0.codec.rotate">0</property>
  <property name="meta.media.0.codec.frame_rate">25</property>
  <property name="meta.media.0.codec.pix_fmt">yuv420p</property>
  <property name="meta.media.0.codec.sample_aspect_ratio">1,42222</property>
  <property name="meta.media.0.codec.colorspace">709</property>
  <property name="meta.media.0.codec.color_trc">1</property>
  <property name="meta.media.0.codec.name">h264</property>
  <property name="meta.media.0.codec.long_name">H.264 / AVC / MPEG-4 AVC / MPEG-4 part 10</property>
  <property name="meta.media.0.codec.bit_rate">4001033</property>
  <property name="meta.attr.0.stream.creation_time.markup">2019-03-26T18:00:08.000000Z</property>
  <property name="meta.attr.0.stream.language.markup">eng</property>
  <property name="meta.attr.0.stream.encoder.markup">AVC Coding</property>
  <property name="meta.media.1.stream.type">audio</property>
  <property name="meta.media.1.codec.sample_fmt">fltp</property>
  <property name="meta.media.1.codec.sample_rate">44100</property>
  <property name="meta.media.1.codec.channels">2</property>
  <property name="meta.media.1.codec.name">aac</property>
  <property name="meta.media.1.codec.long_name">AAC (Advanced Audio Coding)</property>
  <property name="meta.media.1.codec.bit_rate">131051</property>
  <property name="meta.attr.1.stream.creation_time.markup">2019-03-26T18:00:08.000000Z</property>
  <property name="meta.attr.1.stream.language.markup">eng</property>
  <property name="meta.attr.major_brand.markup">isom</property>
  <property name="meta.attr.minor_version.markup">0</property>
  <property name="meta.attr.compatible_brands.markup">isomavc1</property>
  <property name="meta.attr.creation_time.markup">2019-03-26T18:00:08.000000Z</property>
  <property name="meta.media.sample_aspect_num">64</property>
  <property name="meta.media.sample_aspect_den">45</property>
  <property name="meta.media.frame_rate_num">25</property>
  <property name="meta.media.frame_rate_den">1</property>
  <property name="meta.media.colorspace">709</property>
  <property name="meta.media.color_trc">1</property>
  <property name="meta.media.width">1280</property>
  <property name="meta.media.height">1024</property>
  <property name="meta.media.top_field_first">0</property>
  <property name="meta.media.progressive">1</property>
  <property name="kdenlive:id">6</property>
 </producer>
 <playlist id="playlist4">
  <blank length="00:02:06,073"/>
  <entry producer="6_playlist3" in="00:02:07,040" out="00:03:33,000">
   <property name="kdenlive:id">6</property>
   <filter id="pan_zoom" in="00:02:07,040" out="00:03:33,000">
    <property name="background">colour:0x00000000</property>
    <property name="mlt_service">affine</property>
    <property name="kdenlive_id">pan_zoom</property>
    <property name="tag">affine</property>
    <property name="kdenlive_ix">1</property>
    <property name="transition.geometry">0=-3000/-650:3840x2160:100;103=-3000/-650:3840x2160:100;166=-2500/-650:3840x2160:100;206=-1900/-650:3840x2160:100;242=-1350/-650:3840x2160:100;289=-850/-650:3840x2160:100;423=-850/-650:3840x2160:100;536=-850/-650:3840x2160:100;587=-600/-650:3840x2160:100;617=-400/-650:3840x2160:100;1208=-400/-650:3840x2160:100;1245=-350/-650:3840x2160:100;1283=-200/-650:3840x2160:100;1408=-100/-650:3840x2160:100;1458=-250/-650:3840x2160:100;1489=-250/-650:3840x2160:100;2056=-250/-650:3840x2160:100;2107=-550/-650:3840x2160:100;2172=-350/-650:3840x2160:100;2290=-350/-650:3840x2160:100;2372=-250/-650:3840x2160:100;2576=-280,178/-650:3840x2160:100</property>
    <property name="transition.distort">0</property>
    <property name="kdenlive:sync_in_out">1</property>
    <property name="kdenlive_info">0/-1/</property>
    <property name="disable"/>
    <property name="use_normalised">0</property>
   </filter>
   <filter id="frei0r.sopsat">
    <property name="version">0,3</property>
    <property name="mlt_service">frei0r.sopsat</property>
    <property name="kdenlive_id">frei0r.sopsat</property>
    <property name="tag">frei0r.sopsat</property>
    <property name="kdenlive_ix">2</property>
    <property name="rSlope">3807=0,05</property>
    <property name="gSlope">3807=0,05</property>
    <property name="bSlope">3807=0,05</property>
    <property name="aSlope">3807=0,05</property>
    <property name="rOffset">3807=0,5</property>
    <property name="gOffset">3807=0,5</property>
    <property name="bOffset">3807=0,5</property>
    <property name="aOffset">3807=0,5</property>
    <property name="rPower">3807=0,05</property>
    <property name="gPower">3807=0,05</property>
    <property name="bPower">3807=0,05</property>
    <property name="aPower">3807=0,05</property>
    <property name="saturation">3807=0,17</property>
    <property name="kdenlive_info">0/-1/</property>
    <property name="disable">0</property>
   </filter>
   <filter id="fade_to_black" in="00:03:32,332" out="00:03:33,000">
    <property name="start">1</property>
    <property name="mlt_service">brightness</property>
    <property name="kdenlive_id">fade_to_black</property>
    <property name="tag">brightness</property>
    <property name="kdenlive_ix">3</property>
    <property name="end">0</property>
    <property name="kdenlive_info">1/-1/</property>
    <property name="disable"/>
   </filter>
   <filter id="gamma">
    <property name="gamma">3807=1,3</property>
    <property name="mlt_service">gamma</property>
    <property name="kdenlive_id">gamma</property>
    <property name="tag">gamma</property>
    <property name="kdenlive_ix">4</property>
    <property name="kdenlive_info">0/-1/</property>
    <property name="disable"/>
   </filter>
   <filter id="frei0r.sharpness">
    <property name="version">0,2</property>
    <property name="mlt_service">frei0r.sharpness</property>
    <property name="kdenlive_id">frei0r.sharpness</property>
    <property name="tag">frei0r.sharpness</property>
    <property name="kdenlive_ix">5</property>
    <property name="Amount">3807=0,3</property>
    <property name="Size">3807=0,163</property>
    <property name="kdenlive_info"/>
    <property name="disable">0</property>
   </filter>
  </entry>
  <entry producer="6" in="00:03:48,248" out="00:03:54,955">
   <property name="kdenlive:id">6</property>
  </entry>
  <blank length="00:12:32,966"/>
  <entry producer="6" in="00:16:27,961" out="00:28:04,571">
   <property name="kdenlive:id">6</property>
  </entry>
  <entry producer="6" in="00:28:04,605" out="00:28:06,173">
   <property name="kdenlive:id">6</property>
  </entry>
 </playlist>
 <playlist id="playlist5"/>
 <tractor id="tractor2" in="00:00:00,000" out="00:27:49,950">
  <property name="kdenlive:track_name">extra audio</property>
  <property name="kdenlive:audio_track">1</property>
  <property name="kdenlive:trackheight">60</property>
  <property name="kdenlive:thumbs_format"/>
  <property name="kdenlive:audio_rec"/>
  <track hide="video" producer="playlist4"/>
  <track hide="video" producer="playlist5"/>
 </tractor>
 <playlist id="playlist6"/>
 <playlist id="playlist7"/>
 <tractor id="tractor3" in="00:00:00,000">
  <property name="kdenlive:track_name">Audio 2</property>
  <property name="kdenlive:audio_track">1</property>
  <property name="kdenlive:trackheight">60</property>
  <property name="kdenlive:thumbs_format"/>
  <property name="kdenlive:audio_rec"/>
  <track hide="video" producer="playlist6"/>
  <track hide="video" producer="playlist7"/>
 </tractor>
 <playlist id="playlist8"/>
 <playlist id="playlist9"/>
 <tractor id="tractor4" in="00:00:00,000">
  <property name="kdenlive:track_name">Audio 1</property>
  <property name="kdenlive:audio_track">1</property>
  <property name="kdenlive:trackheight">60</property>
  <property name="kdenlive:thumbs_format"/>
  <property name="kdenlive:audio_rec"/>
  <track hide="video" producer="playlist8"/>
  <track hide="video" producer="playlist9"/>
 </tractor>
 <playlist id="playlist10">
  <blank length="00:02:06,073"/>
  <entry producer="6" in="00:02:07,040" out="00:03:33,000">
   <property name="kdenlive:id">6</property>
   <property name="kdenlive:activeeffect">0</property>
   <filter id="filter0">
    <property name="background">colour:0x00000000</property>
    <property name="mlt_service">affine</property>
    <property name="kdenlive_id">pan_zoom</property>
    <property name="transition.geometry">3807=-1439 0 1920 1080;3868=-1439 -7 2000 1125;3941=-1239 -9 2016 1134;4007=-969 -12 2112 1188;4114=-314 -12 2112 1188;4374=-314 -12 2112 1188;4455=-180 -12 2112 1188;4622=-163 -12 2112 1188;4989=-163 -12 2112 1188;5041=-95 -12 2112 1188;5232=0 -12 2112 1188;5722=0 -12 2112 1188;5913=-254 -11 2112 1188;5988=-118 -11 2112 1188;6166=-100 -11 2112 1188</property>
    <property name="transition.distort">0</property>
    <property name="use_normalised">0</property>
    <property name="kdenlive:collapsed">0</property>
   </filter>
   <filter id="filter1">
    <property name="version">0,3</property>
    <property name="mlt_service">frei0r.sopsat</property>
    <property name="kdenlive_id">frei0r.sopsat</property>
    <property name="tag">frei0r.sopsat</property>
    <property name="kdenlive_ix">2</property>
    <property name="rSlope">00:02:07,040=0,05</property>
    <property name="gSlope">00:02:07,040=0,05</property>
    <property name="bSlope">00:02:07,040=0,05</property>
    <property name="aSlope">00:02:07,040=0,05</property>
    <property name="rOffset">00:02:07,040=0,5</property>
    <property name="gOffset">00:02:07,040=0,5</property>
    <property name="bOffset">00:02:07,040=0,5</property>
    <property name="aOffset">00:02:07,040=0,5</property>
    <property name="rPower">00:02:07,040=0,05</property>
    <property name="gPower">00:02:07,040=0,05</property>
    <property name="bPower">00:02:07,040=0,05</property>
    <property name="aPower">00:02:07,040=0,05</property>
    <property name="saturation">00:02:07,040=0,17</property>
    <property name="kdenlive_info">0/-1/</property>
    <property name="disable">1</property>
    <property name="kdenlive:collapsed">1</property>
   </filter>
   <filter id="filter2" in="00:03:31,899" out="00:03:33,000">
    <property name="start">1</property>
    <property name="mlt_service">brightness</property>
    <property name="kdenlive_id">fade_to_black</property>
    <property name="tag">brightness</property>
    <property name="kdenlive_ix">3</property>
    <property name="end">0</property>
    <property name="kdenlive_info">1/-1/</property>
    <property name="disable"/>
    <property name="kdenlive:collapsed">0</property>
   </filter>
   <filter id="filter3">
    <property name="gamma">00:02:07,040=1,3</property>
    <property name="mlt_service">gamma</property>
    <property name="kdenlive_id">gamma</property>
    <property name="tag">gamma</property>
    <property name="kdenlive_ix">4</property>
    <property name="kdenlive_info">0/-1/</property>
    <property name="disable">1</property>
    <property name="kdenlive:collapsed">1</property>
   </filter>
   <filter id="filter4">
    <property name="version">0,2</property>
    <property name="mlt_service">frei0r.sharpness</property>
    <property name="kdenlive_id">frei0r.sharpness</property>
    <property name="tag">frei0r.sharpness</property>
    <property name="kdenlive_ix">5</property>
    <property name="Amount">00:02:07,040=0,3</property>
    <property name="Size">00:02:07,040=0,163</property>
    <property name="kdenlive_info"/>
    <property name="disable">1</property>
    <property name="kdenlive:collapsed">1</property>
   </filter>
  </entry>
  <blank length="00:12:39,706"/>
  <entry producer="6" in="00:16:27,961" out="00:28:04,571">
   <property name="kdenlive:id">6</property>
   <filter id="filter5" in="00:16:27,961" out="00:28:04,571">
    <property name="background">colour:0x00000000</property>
    <property name="mlt_service">affine</property>
    <property name="kdenlive_id">pan_zoom</property>
    <property name="tag">affine</property>
    <property name="kdenlive_ix">1</property>
    <property name="transition.geometry">0=-1650/-450:3840x2160:100;3988=-1650/-450:3840x2160:100;4042=-1550/-450:3840x2160:100;4736=-1550/-450:3840x2160:100;4845=-1600/-450:3840x2160:100;6367=-1600/-450:3840x2160:100;6497=-1670/-450:3840x2160:100;7644=-1670/-450:3840x2160:100;7689=-1550/-450:3840x2160:100;7880=-1620/-450:3840x2160:100;8069=-1680/-450:3840x2160:100;8313=-1680/-450:3840x2160:100;8413=-1616/-450:3840x2160:100;8670=-1616/-450:3840x2160:100;9008=-1670/-450:3840x2160:100;9350=-1636/-450:3840x2160:100;9399=-1572/-450:3840x2160:100;9467=-1632/-450:3840x2160:100;9844=-1632/-450:3840x2160:100;9910=-1571/-450:3840x2160:100;10005=-1571/-450:3840x2160:100;10174=-1615/-450:3840x2160:100;14508=-1615/-450:3840x2160:100;14557=-1686/-450:3840x2160:100;14737=-1600/-450:3840x2160:100;16438=-1600/-450:3840x2160:100;16519=-1518/-450:3840x2160:100;16778=-1518/-450:3840x2160:100;16826=-1386/-450:3840x2160:100;17107=-1386/-450:3840x2160:100;17208=-1500/-450:3840x2160:100;17319=-1650/-450:3840x2160:100;17475=-1600/-450:3840x2160:100;17526=-1500/-450:3840x2160:100;18059=-1500/-450:3840x2160:100;18125=-1600/-450:3840x2160:100;19126=-1600/-450:3840x2160:100;19226=-1500/-450:3840x2160:100;19830=-1500/-450:3840x2160:100;19888=-1600/-450:3840x2160:100;20111=-1600/-450:3840x2160:100;20182=-1500/-450:3840x2160:100;20221=-1500/-450:3840x2160:100;20312=-1629/-450:3840x2160:100;20586=-1629/-450:3840x2160:100;20668=-1384/-450:3840x2160:100;20792=-1384/-450:3840x2160:100;20832=-1300/-450:3840x2160:100</property>
    <property name="transition.distort">0</property>
    <property name="kdenlive:sync_in_out">1</property>
    <property name="kdenlive_info">1/-1/</property>
    <property name="disable"/>
    <property name="use_normalised">0</property>
   </filter>
   <filter id="filter6">
    <property name="version">0,3</property>
    <property name="mlt_service">frei0r.sopsat</property>
    <property name="kdenlive_id">frei0r.sopsat</property>
    <property name="tag">frei0r.sopsat</property>
    <property name="kdenlive_ix">2</property>
    <property name="kdenlive_info"/>
    <property name="disable"/>
    <property name="rSlope">29609=0,05</property>
    <property name="gSlope">29609=0,05</property>
    <property name="bSlope">29609=0,05</property>
    <property name="aSlope">29609=0,05</property>
    <property name="rOffset">29609=0,5</property>
    <property name="gOffset">29609=0,5</property>
    <property name="bOffset">29609=0,5</property>
    <property name="aOffset">29609=0,5</property>
    <property name="rPower">29609=0,05</property>
    <property name="gPower">29609=0,05</property>
    <property name="bPower">29609=0,05</property>
    <property name="aPower">29609=0,05</property>
    <property name="saturation">29609=0,144</property>
   </filter>
   <filter id="filter7">
    <property name="version">0,2</property>
    <property name="mlt_service">frei0r.sharpness</property>
    <property name="kdenlive_id">frei0r.sharpness</property>
    <property name="tag">frei0r.sharpness</property>
    <property name="kdenlive_ix">3</property>
    <property name="Amount">29609=0,299</property>
    <property name="Size">29609=0,168</property>
    <property name="kdenlive_info"/>
    <property name="disable"/>
   </filter>
   <filter id="filter8">
    <property name="gamma">29609=1,18</property>
    <property name="mlt_service">gamma</property>
    <property name="kdenlive_id">gamma</property>
    <property name="tag">gamma</property>
    <property name="kdenlive_ix">4</property>
    <property name="kdenlive_info"/>
    <property name="disable"/>
   </filter>
   <filter id="filter9">
    <property name="version">0,3</property>
    <property name="mlt_service">frei0r.sopsat</property>
    <property name="kdenlive_id">frei0r.sopsat</property>
    <property name="tag">frei0r.sopsat</property>
    <property name="kdenlive_ix">5</property>
    <property name="rSlope">29609=0,05</property>
    <property name="gSlope">29609=0,05</property>
    <property name="bSlope">29609=0,05</property>
    <property name="aSlope">29609=0,05</property>
    <property name="rOffset">29609=0,5</property>
    <property name="gOffset">29609=0,5</property>
    <property name="bOffset">29609=0,5</property>
    <property name="aOffset">29609=0,5</property>
    <property name="rPower">29609=0,05</property>
    <property name="gPower">29609=0,05</property>
    <property name="bPower">29609=0,05</property>
    <property name="aPower">29609=0,05</property>
    <property name="saturation">29609=0,13</property>
    <property name="kdenlive_info"/>
   </filter>
  </entry>
  <entry producer="6" in="00:28:04,605" out="00:28:06,173">
   <property name="kdenlive:id">6</property>
   <filter id="filter10">
    <property name="background">colour:0x00000000</property>
    <property name="mlt_service">affine</property>
    <property name="kdenlive_id">pan_zoom</property>
    <property name="tag">affine</property>
    <property name="kdenlive_ix">1</property>
    <property name="kdenlive_info"/>
    <property name="disable"/>
    <property name="transition.geometry">0=-1300/-450:3840x2160:100;47=-1304,12/-450:3840x2160:100</property>
    <property name="transition.distort">0</property>
    <property name="use_normalised">0</property>
   </filter>
   <filter id="filter11">
    <property name="version">0,3</property>
    <property name="mlt_service">frei0r.sopsat</property>
    <property name="kdenlive_id">frei0r.sopsat</property>
    <property name="tag">frei0r.sopsat</property>
    <property name="kdenlive_ix">3</property>
    <property name="kdenlive_info"/>
    <property name="disable"/>
    <property name="rSlope">29609=0,05</property>
    <property name="gSlope">29609=0,05</property>
    <property name="bSlope">29609=0,05</property>
    <property name="aSlope">29609=0,05</property>
    <property name="rOffset">29609=0,5</property>
    <property name="gOffset">29609=0,5</property>
    <property name="bOffset">29609=0,5</property>
    <property name="aOffset">29609=0,5</property>
    <property name="rPower">29609=0,05</property>
    <property name="gPower">29609=0,05</property>
    <property name="bPower">29609=0,05</property>
    <property name="aPower">29609=0,05</property>
    <property name="saturation">50487=0,144</property>
   </filter>
   <filter id="filter12">
    <property name="gamma">50487=1,18</property>
    <property name="mlt_service">gamma</property>
    <property name="kdenlive_id">gamma</property>
    <property name="tag">gamma</property>
    <property name="kdenlive_ix">5</property>
    <property name="kdenlive_info"/>
   </filter>
  </entry>
  <blank length="00:00:08,075"/>
  <entry producer="19" in="00:00:01,535" out="00:00:06,373">
   <property name="kdenlive:id">19</property>
   <filter id="filter13" in="00:00:01,535" out="00:00:02,903">
    <property name="start">0</property>
    <property name="mlt_service">brightness</property>
    <property name="kdenlive_id">fade_from_black</property>
    <property name="tag">brightness</property>
    <property name="kdenlive_ix">1</property>
    <property name="kdenlive_info"/>
    <property name="disable">1</property>
    <property name="end">1</property>
   </filter>
   <filter id="filter16" in="00:00:05,539" out="00:00:06,373">
    <property name="start">1</property>
    <property name="mlt_service">brightness</property>
    <property name="kdenlive_id">fade_to_black</property>
    <property name="tag">brightness</property>
    <property name="kdenlive_ix">2</property>
    <property name="kdenlive_info"/>
    <property name="disable">1</property>
    <property name="end">0</property>
   </filter>
  </entry>
 </playlist>
 <playlist id="playlist11"/>
 <tractor id="tractor5" in="00:00:00,000" out="00:28:02,903">
  <property name="kdenlive:track_name">Video 1</property>
  <property name="kdenlive:trackheight">60</property>
  <property name="kdenlive:thumbs_format"/>
  <property name="kdenlive:audio_rec"/>
  <track producer="playlist10"/>
  <track producer="playlist11"/>
 </tractor>
 <producer title="Anonymous Submission" id="producer0" in="00:00:00,000" out="00:28:12,779">
  <property name="length">00:28:13;10</property>
  <property name="eof">pause</property>
  <property name="resource">SoundOfMagic_Vortrag_Leipzig_2019.mp4</property>
  <property name="audio_index">1</property>
  <property name="video_index">0</property>
  <property name="mute_on_pause">1</property>
  <property name="mlt_service">avformat-novalidate</property>
  <property name="seekable">1</property>
  <property name="aspect_ratio">1,42222</property>
  <property name="kdenlive:file_size">875103919</property>
  <property name="kdenlive:file_hash">0324e73d1a9f862d748b96d11c5ea0eb</property>
  <property name="global_feed">1</property>
  <property name="kdenlive:id">6</property>
  <property name="kdenlive:folderid">-1</property>
  <property name="xml">was here</property>
  <property name="meta.media.nb_streams">2</property>
  <property name="meta.media.0.stream.type">video</property>
  <property name="meta.media.0.stream.frame_rate">25</property>
  <property name="meta.media.0.stream.sample_aspect_ratio">0</property>
  <property name="meta.media.0.codec.width">1280</property>
  <property name="meta.media.0.codec.height">1024</property>
  <property name="meta.media.0.codec.rotate">0</property>
  <property name="meta.media.0.codec.frame_rate">25</property>
  <property name="meta.media.0.codec.pix_fmt">yuv420p</property>
  <property name="meta.media.0.codec.sample_aspect_ratio">1,42222</property>
  <property name="meta.media.0.codec.colorspace">709</property>
  <property name="meta.media.0.codec.color_trc">1</property>
  <property name="meta.media.0.codec.name">h264</property>
  <property name="meta.media.0.codec.long_name">H.264 / AVC / MPEG-4 AVC / MPEG-4 part 10</property>
  <property name="meta.media.0.codec.bit_rate">4001033</property>
  <property name="meta.attr.0.stream.creation_time.markup">2019-03-26T18:00:08.000000Z</property>
  <property name="meta.attr.0.stream.language.markup">eng</property>
  <property name="meta.attr.0.stream.encoder.markup">AVC Coding</property>
  <property name="meta.media.1.stream.type">audio</property>
  <property name="meta.media.1.codec.sample_fmt">fltp</property>
  <property name="meta.media.1.codec.sample_rate">44100</property>
  <property name="meta.media.1.codec.channels">2</property>
  <property name="meta.media.1.codec.name">aac</property>
  <property name="meta.media.1.codec.long_name">AAC (Advanced Audio Coding)</property>
  <property name="meta.media.1.codec.bit_rate">131051</property>
  <property name="meta.attr.1.stream.creation_time.markup">2019-03-26T18:00:08.000000Z</property>
  <property name="meta.attr.1.stream.language.markup">eng</property>
  <property name="meta.attr.major_brand.markup">isom</property>
  <property name="meta.attr.minor_version.markup">0</property>
  <property name="meta.attr.compatible_brands.markup">isomavc1</property>
  <property name="meta.attr.creation_time.markup">2019-03-26T18:00:08.000000Z</property>
  <property name="meta.media.sample_aspect_num">64</property>
  <property name="meta.media.sample_aspect_den">45</property>
  <property name="meta.media.frame_rate_num">25</property>
  <property name="meta.media.frame_rate_den">1</property>
  <property name="meta.media.colorspace">709</property>
  <property name="meta.media.color_trc">1</property>
  <property name="meta.media.width">1280</property>
  <property name="meta.media.height">1024</property>
  <property name="meta.media.top_field_first">0</property>
  <property name="meta.media.progressive">1</property>
  <property name="set.test_audio">1</property>
  <property name="set.test_image">0</property>
 </producer>
 <playlist id="playlist12">
  <blank length="00:00:04,838"/>
  <entry producer="6" in="00:00:03,470" out="00:00:42,409">
   <property name="kdenlive:id">6</property>
   <property name="kdenlive:activeeffect">0</property>
   <filter id="filter17">
    <property name="background">colour:0x00000000</property>
    <property name="mlt_service">affine</property>
    <property name="kdenlive_id">pan_zoom</property>
    <property name="transition.geometry">104=-1439 0 1920 1080;177=-1239 0 2016 1134;301=-1339 0 2016 1134;443=-1339 0 2054 1155;483=-1288 -1 2112 1188;667=-1288 -1 2112 1188;719=-1192 -1 2112 1188;778=-1305 -1 2112 1188;845=-1515 -1 2112 1188;1118=-1515 -1 2112 1188;1175=-1449 -1 2112 1188;1271=-1631 -1 2112 1188</property>
    <property name="transition.distort">0</property>
    <property name="use_normalised">0</property>
    <property name="kdenlive:collapsed">0</property>
   </filter>
   <filter id="filter18" in="00:00:41,041" out="00:00:42,442">
    <property name="start">1</property>
    <property name="mlt_service">brightness</property>
    <property name="kdenlive_id">fade_to_black</property>
    <property name="end">0</property>
    <property name="kdenlive:collapsed">0</property>
   </filter>
  </entry>
  <blank length="00:02:48,215"/>
  <entry producer="producer0" in="00:03:48,248" out="00:03:54,955">
   <property name="kdenlive:id">6</property>
   <property name="kdenlive:activeeffect">0</property>
   <filter id="filter19">
    <property name="background">colour:0x00000000</property>
    <property name="mlt_service">affine</property>
    <property name="kdenlive_id">pan_zoom</property>
    <property name="transition.geometry">6840=-91 0 2016 1134;6881=-255 -53 2112 1188;6937=-134 -126 2400 1350;6976=-395 -228 2503 1407;7041=-965 -266 2688 1512</property>
    <property name="transition.distort">0</property>
    <property name="use_normalised">0</property>
    <property name="kdenlive:collapsed">0</property>
   </filter>
  </entry>
  <entry producer="6" in="00:03:54,988" out="00:16:27,928">
   <property name="kdenlive:id">6</property>
   <property name="kdenlive:activeeffect">0</property>
   <filter id="filter20">
    <property name="background">colour:0x00000000</property>
    <property name="mlt_service">affine</property>
    <property name="kdenlive_id">pan_zoom</property>
    <property name="transition.geometry">7042=-929 -400 2688 1512;7118=-1080 -400 2688 1512</property>
    <property name="transition.distort">0</property>
    <property name="use_normalised">0</property>
    <property name="kdenlive:collapsed">0</property>
   </filter>
   <filter id="filter21">
    <property name="version">0,3</property>
    <property name="mlt_service">frei0r.sopsat</property>
    <property name="kdenlive_id">frei0r.sopsat</property>
    <property name="tag">frei0r.sopsat</property>
    <property name="kdenlive_ix">2</property>
    <property name="rSlope">00:03:54,988=0,05</property>
    <property name="gSlope">00:03:54,988=0,05</property>
    <property name="bSlope">00:03:54,988=0,05</property>
    <property name="aSlope">00:03:54,988=0,05</property>
    <property name="rOffset">00:03:54,988=0,5</property>
    <property name="gOffset">00:03:54,988=0,5</property>
    <property name="bOffset">00:03:54,988=0,5</property>
    <property name="aOffset">00:03:54,988=0,5</property>
    <property name="rPower">00:03:54,988=0,05</property>
    <property name="gPower">00:03:54,988=0,05</property>
    <property name="bPower">00:03:54,988=0,05</property>
    <property name="aPower">00:03:54,988=0,05</property>
    <property name="saturation">00:03:54,988=0,144</property>
    <property name="kdenlive_info">1/-1/</property>
    <property name="disable">1</property>
    <property name="kdenlive:collapsed">1</property>
   </filter>
   <filter id="filter22">
    <property name="gamma">00:03:54,988=1,18</property>
    <property name="mlt_service">gamma</property>
    <property name="kdenlive_id">gamma</property>
    <property name="tag">gamma</property>
    <property name="kdenlive_ix">3</property>
    <property name="kdenlive_info"/>
    <property name="kdenlive:collapsed">1</property>
    <property name="disable">1</property>
   </filter>
   <filter id="filter23">
    <property name="version">0,2</property>
    <property name="mlt_service">frei0r.sharpness</property>
    <property name="kdenlive_id">frei0r.sharpness</property>
    <property name="tag">frei0r.sharpness</property>
    <property name="kdenlive_ix">4</property>
    <property name="Amount">00:03:54,988=0,3</property>
    <property name="Size">00:03:54,988=0,167</property>
    <property name="kdenlive_info"/>
    <property name="kdenlive:collapsed">1</property>
    <property name="disable">1</property>
   </filter>
  </entry>
  <blank length="00:11:42,476"/>
  <entry producer="24" in="00:00:00,000" out="00:00:05,172">
   <property name="kdenlive:id">24</property>
   <filter id="filter24" out="00:00:01,034">
    <property name="start">0</property>
    <property name="mlt_service">brightness</property>
    <property name="kdenlive_id">fade_from_black</property>
    <property name="tag">brightness</property>
    <property name="kdenlive_ix">1</property>
    <property name="kdenlive_info"/>
    <property name="disable">0</property>
    <property name="end">1</property>
   </filter>
   <filter id="filter25" in="00:00:04,137" out="00:00:05,172">
    <property name="start">1</property>
    <property name="mlt_service">brightness</property>
    <property name="kdenlive_id">fade_to_black</property>
    <property name="tag">brightness</property>
    <property name="kdenlive_ix">2</property>
    <property name="kdenlive_info"/>
    <property name="disable">1</property>
    <property name="end">0</property>
   </filter>
  </entry>
 </playlist>
 <playlist id="playlist13"/>
 <tractor id="tractor6" in="00:00:00,000" out="00:27:59,393">
  <property name="kdenlive:track_name">Video 2</property>
  <property name="kdenlive:trackheight">60</property>
  <property name="kdenlive:thumbs_format"/>
  <property name="kdenlive:audio_rec"/>
  <track producer="playlist12"/>
  <track producer="playlist13"/>
 </tractor>
 <playlist id="playlist14">
  <blank length="00:00:43,810"/>
  <entry producer="10" in="00:00:00,000" out="00:01:22,222">
   <property name="kdenlive:id">10</property>
  </entry>
  <blank length="00:25:42,910"/>
  <entry producer="20" in="00:00:00,901" out="00:00:07,374">
   <property name="kdenlive:id">20</property>
   <filter id="filter26" in="00:00:00,901" out="00:00:02,836">
    <property name="start">0</property>
    <property name="mlt_service">brightness</property>
    <property name="kdenlive_id">fade_from_black</property>
    <property name="tag">brightness</property>
    <property name="kdenlive_ix">1</property>
    <property name="end">1</property>
    <property name="kdenlive_info"/>
    <property name="disable">0</property>
   </filter>
   <filter id="filter27" in="00:00:04,872" out="00:00:07,374">
    <property name="start">1</property>
    <property name="mlt_service">brightness</property>
    <property name="kdenlive_id">fade_to_black</property>
    <property name="tag">brightness</property>
    <property name="kdenlive_ix">2</property>
    <property name="end">0</property>
    <property name="kdenlive_info"/>
    <property name="disable">1</property>
   </filter>
  </entry>
 </playlist>
 <playlist id="playlist15"/>
 <tractor id="tractor7" in="00:00:00,000" out="00:27:55,455">
  <property name="kdenlive:track_name">Video 3</property>
  <property name="kdenlive:trackheight">60</property>
  <property name="kdenlive:thumbs_format"/>
  <property name="kdenlive:audio_rec"/>
  <track producer="playlist14"/>
  <track producer="playlist15"/>
 </tractor>
 <playlist id="playlist16">
  <blank length="00:00:04,838"/>
  <entry producer="7" in="00:00:00,000" out="00:00:38,939">
   <property name="kdenlive:id">7</property>
   <property name="kdenlive:activeeffect">0</property>
   <filter id="filter28">
    <property name="background">colour:0x00000000</property>
    <property name="mlt_service">affine</property>
    <property name="kdenlive_id">pan_zoom</property>
    <property name="tag">affine</property>
    <property name="kdenlive_ix">1</property>
    <property name="kdenlive_info"/>
    <property name="disable"/>
    <property name="transition.geometry">0=240/0:1920x1080:100;227=480/0:1438x1080:100</property>
    <property name="transition.distort">0</property>
    <property name="use_normalised">0</property>
    <property name="kdenlive:collapsed">0</property>
   </filter>
  </entry>
  <blank length="00:01:22,256"/>
  <entry producer="9" in="00:00:00,000" out="00:00:35,736">
   <property name="kdenlive:id">9</property>
   <property name="kdenlive:activeeffect">0</property>
   <filter id="filter29">
    <property name="background">colour:0x00000000</property>
    <property name="mlt_service">affine</property>
    <property name="kdenlive_id">pan_zoom</property>
    <property name="tag">affine</property>
    <property name="kdenlive_ix">1</property>
    <property name="kdenlive_info"/>
    <property name="disable"/>
    <property name="transition.geometry">0=239/0:1920x1080:100</property>
    <property name="transition.distort">0</property>
    <property name="use_normalised">0</property>
    <property name="kdenlive:collapsed">0</property>
   </filter>
  </entry>
  <entry producer="1" in="00:00:00,000" out="00:00:50,083">
   <property name="kdenlive:id">1</property>
   <property name="kdenlive:activeeffect">0</property>
   <filter id="filter30">
    <property name="background">colour:0x00000000</property>
    <property name="mlt_service">affine</property>
    <property name="kdenlive_id">pan_zoom</property>
    <property name="tag">affine</property>
    <property name="kdenlive_ix">1</property>
    <property name="kdenlive_info"/>
    <property name="disable"/>
    <property name="transition.geometry">0=240 0 1920 1080 100</property>
    <property name="transition.distort">0</property>
    <property name="use_normalised">0</property>
    <property name="kdenlive:collapsed">0</property>
   </filter>
  </entry>
  <entry producer="2" in="00:00:00,000" out="00:04:22,856">
   <property name="kdenlive:id">2</property>
   <property name="kdenlive:activeeffect">0</property>
   <filter id="filter31">
    <property name="background">colour:0x00000000</property>
    <property name="mlt_service">affine</property>
    <property name="kdenlive_id">pan_zoom</property>
    <property name="tag">affine</property>
    <property name="kdenlive_ix">1</property>
    <property name="kdenlive_info"/>
    <property name="disable"/>
    <property name="transition.geometry">0=240/0:1920x1080:100</property>
    <property name="transition.distort">0</property>
    <property name="use_normalised">0</property>
    <property name="kdenlive:collapsed">0</property>
   </filter>
  </entry>
  <entry producer="3" in="00:00:00,000" out="00:01:25,926">
   <property name="kdenlive:id">3</property>
   <filter id="filter32">
    <property name="background">colour:0x00000000</property>
    <property name="mlt_service">affine</property>
    <property name="kdenlive_id">pan_zoom</property>
    <property name="tag">affine</property>
    <property name="kdenlive_ix">1</property>
    <property name="kdenlive_info"/>
    <property name="disable"/>
    <property name="transition.geometry">0=240/0:1920x1080:100</property>
    <property name="transition.distort">0</property>
    <property name="use_normalised">0</property>
   </filter>
  </entry>
  <entry producer="4" in="00:00:00,000" out="00:02:57,524">
   <property name="kdenlive:id">4</property>
   <filter id="filter33">
    <property name="background">colour:0x00000000</property>
    <property name="mlt_service">affine</property>
    <property name="kdenlive_id">pan_zoom</property>
    <property name="tag">affine</property>
    <property name="kdenlive_ix">1</property>
    <property name="kdenlive_info"/>
    <property name="disable"/>
    <property name="transition.geometry">0=240/0:1920x1080:100</property>
    <property name="transition.distort">0</property>
    <property name="use_normalised">0</property>
   </filter>
  </entry>
  <entry producer="5" in="00:00:00,000" out="00:02:25,626">
   <property name="kdenlive:id">5</property>
   <filter id="filter34">
    <property name="background">colour:0x00000000</property>
    <property name="mlt_service">affine</property>
    <property name="kdenlive_id">pan_zoom</property>
    <property name="tag">affine</property>
    <property name="kdenlive_ix">1</property>
    <property name="kdenlive_info"/>
    <property name="disable"/>
    <property name="transition.geometry">0=240/0:1920x1080:100</property>
    <property name="transition.distort">0</property>
    <property name="use_normalised">0</property>
   </filter>
  </entry>
  <entry producer="11" in="00:00:00,000" out="00:03:57,724">
   <property name="kdenlive:id">11</property>
   <filter id="filter35">
    <property name="background">colour:0x00000000</property>
    <property name="mlt_service">affine</property>
    <property name="kdenlive_id">pan_zoom</property>
    <property name="tag">affine</property>
    <property name="kdenlive_ix">1</property>
    <property name="kdenlive_info"/>
    <property name="disable"/>
    <property name="transition.geometry">0=240/0:1920x1080:100</property>
    <property name="transition.distort">0</property>
    <property name="use_normalised">0</property>
   </filter>
  </entry>
  <entry producer="12" in="00:00:00,000" out="00:03:12,880">
   <property name="kdenlive:id">12</property>
   <filter id="filter36">
    <property name="background">colour:0x00000000</property>
    <property name="mlt_service">affine</property>
    <property name="kdenlive_id">pan_zoom</property>
    <property name="tag">affine</property>
    <property name="kdenlive_ix">1</property>
    <property name="kdenlive_info"/>
    <property name="disable"/>
    <property name="transition.geometry">0=240/0:1920x1080:100</property>
    <property name="transition.distort">0</property>
    <property name="use_normalised">0</property>
   </filter>
  </entry>
  <entry producer="13" in="00:00:00,000" out="00:03:40,340">
   <property name="kdenlive:id">13</property>
   <filter id="filter37">
    <property name="background">colour:0x00000000</property>
    <property name="mlt_service">affine</property>
    <property name="kdenlive_id">pan_zoom</property>
    <property name="tag">affine</property>
    <property name="kdenlive_ix">1</property>
    <property name="kdenlive_info"/>
    <property name="disable"/>
    <property name="transition.geometry">0=240/0:1920x1080:100</property>
    <property name="transition.distort">0</property>
    <property name="use_normalised">0</property>
   </filter>
  </entry>
  <entry producer="14" in="00:00:00,000" out="00:01:51,084">
   <property name="kdenlive:id">14</property>
   <filter id="filter38">
    <property name="background">colour:0x00000000</property>
    <property name="mlt_service">affine</property>
    <property name="kdenlive_id">pan_zoom</property>
    <property name="tag">affine</property>
    <property name="kdenlive_ix">1</property>
    <property name="kdenlive_info"/>
    <property name="disable"/>
    <property name="transition.geometry">0=240/0:1920x1080:100</property>
    <property name="transition.distort">0</property>
    <property name="use_normalised">0</property>
   </filter>
  </entry>
  <entry producer="15" in="00:00:00,000" out="00:00:23,891">
   <property name="kdenlive:id">15</property>
   <filter id="filter39">
    <property name="background">colour:0x00000000</property>
    <property name="mlt_service">affine</property>
    <property name="kdenlive_id">pan_zoom</property>
    <property name="tag">affine</property>
    <property name="kdenlive_ix">1</property>
    <property name="kdenlive_info"/>
    <property name="disable"/>
    <property name="transition.geometry">0=240/0:1920x1080:100</property>
    <property name="transition.distort">0</property>
    <property name="use_normalised">0</property>
   </filter>
   <filter id="filter40" in="00:00:22,556" out="00:00:23,891">
    <property name="start">1</property>
    <property name="mlt_service">brightness</property>
    <property name="kdenlive_id">fade_to_black</property>
    <property name="tag">brightness</property>
    <property name="kdenlive_ix">2</property>
    <property name="end">0</property>
    <property name="kdenlive_info"/>
    <property name="disable">1</property>
   </filter>
  </entry>
 </playlist>
 <playlist id="playlist17"/>
 <tractor id="tractor8" in="00:00:00,000" out="00:27:49,950">
  <property name="kdenlive:track_name">Video 4</property>
  <property name="kdenlive:trackheight">60</property>
  <property name="kdenlive:thumbs_format"/>
  <property name="kdenlive:audio_rec"/>
  <track hide="both" producer="playlist16"/>
  <track hide="both" producer="playlist17"/>
 </tractor>
 <playlist id="playlist18">
  <entry producer="23" in="00:00:00,000" out="00:00:04,805">
   <property name="kdenlive:id">23</property>
   <property name="kdenlive:activeeffect">0</property>
   <filter id="filter41" in="00:00:04,505" out="00:00:04,805">
    <property name="start">1</property>
    <property name="mlt_service">brightness</property>
    <property name="kdenlive_id">fade_to_black</property>
    <property name="tag">brightness</property>
    <property name="kdenlive_ix">1</property>
    <property name="end">0</property>
    <property name="kdenlive_info"/>
    <property name="kdenlive:collapsed">0</property>
   </filter>
  </entry>
 </playlist>
 <playlist id="playlist19"/>
 <tractor id="tractor9" in="00:00:00,000" out="00:00:04,805">
  <property name="kdenlive:track_name">Video 5</property>
  <property name="kdenlive:trackheight">60</property>
  <property name="kdenlive:thumbs_format"/>
  <property name="kdenlive:audio_rec"/>
  <track producer="playlist18"/>
  <track producer="playlist19"/>
 </tractor>
 <tractor title="Anonymous Submission" id="tractor10" global_feed="1" in="00:00:00,000" out="00:44:43,944">
  <track producer="black_track"/>
  <track producer="tractor0"/>
  <track producer="tractor1"/>
  <track producer="tractor2"/>
  <track producer="tractor3"/>
  <track producer="tractor4"/>
  <track producer="tractor5"/>
  <track producer="tractor6"/>
  <track producer="tractor7"/>
  <track producer="tractor8"/>
  <track producer="tractor9"/>
  <transition id="transition0" in="00:27:48,982" out="00:27:49,950">
   <property name="a_track">8</property>
   <property name="b_track">9</property>
   <property name="factory">loader</property>
   <property name="mlt_service">luma</property>
   <property name="kdenlive_id">dissolve</property>
   <property name="reverse">1</property>
  </transition>
  <transition id="transition1" in="00:27:54,221" out="00:27:55,455">
   <property name="a_track">7</property>
   <property name="b_track">8</property>
   <property name="factory">loader</property>
   <property name="mlt_service">luma</property>
   <property name="kdenlive_id">dissolve</property>
   <property name="reverse">1</property>
  </transition>
  <transition id="transition2" in="00:27:58,058" out="00:27:59,393">
   <property name="a_track">6</property>
   <property name="b_track">7</property>
   <property name="factory">loader</property>
   <property name="mlt_service">luma</property>
   <property name="kdenlive_id">dissolve</property>
   <property name="reverse">1</property>
  </transition>
  <transition id="transition3" in="00:27:54,221" out="00:27:55,455">
   <property name="a_track">6</property>
   <property name="b_track">7</property>
   <property name="factory">loader</property>
   <property name="mlt_service">luma</property>
   <property name="kdenlive_id">dissolve</property>
   <property name="reverse">0</property>
  </transition>
  <transition id="transition4" in="00:27:58,058" out="00:27:59,393">
   <property name="a_track">0</property>
   <property name="b_track">6</property>
   <property name="factory">loader</property>
   <property name="mlt_service">luma</property>
   <property name="kdenlive_id">dissolve</property>
   <property name="reverse">0</property>
  </transition>
  <transition id="transition5" in="00:28:01,935" out="00:28:02,903">
   <property name="a_track">0</property>
   <property name="b_track">6</property>
   <property name="factory">loader</property>
   <property name="mlt_service">luma</property>
   <property name="kdenlive_id">dissolve</property>
   <property name="reverse">1</property>
  </transition>
  <transition id="transition6" in="00:27:47,080" out="00:27:49,950">
   <property name="a_track">0</property>
   <property name="b_track">6</property>
   <property name="factory">loader</property>
   <property name="mlt_service">luma</property>
   <property name="kdenlive_id">dissolve</property>
   <property name="reverse">1</property>
  </transition>
  <transition id="transition7">
   <property name="a_track">0</property>
   <property name="b_track">1</property>
   <property name="mlt_service">mix</property>
   <property name="kdenlive_id">mix</property>
   <property name="internal_added">237</property>
   <property name="always_active">1</property>
   <property name="sum">1</property>
  </transition>
  <transition id="transition8">
   <property name="a_track">0</property>
   <property name="b_track">2</property>
   <property name="mlt_service">mix</property>
   <property name="kdenlive_id">mix</property>
   <property name="internal_added">237</property>
   <property name="always_active">1</property>
   <property name="sum">1</property>
  </transition>
  <transition id="transition9">
   <property name="a_track">0</property>
   <property name="b_track">3</property>
   <property name="mlt_service">mix</property>
   <property name="kdenlive_id">mix</property>
   <property name="internal_added">237</property>
   <property name="always_active">1</property>
   <property name="sum">1</property>
  </transition>
  <transition id="transition10">
   <property name="a_track">0</property>
   <property name="b_track">4</property>
   <property name="mlt_service">mix</property>
   <property name="kdenlive_id">mix</property>
   <property name="internal_added">237</property>
   <property name="always_active">1</property>
   <property name="sum">1</property>
  </transition>
  <transition id="transition11">
   <property name="a_track">0</property>
   <property name="b_track">5</property>
   <property name="mlt_service">mix</property>
   <property name="kdenlive_id">mix</property>
   <property name="internal_added">237</property>
   <property name="always_active">1</property>
   <property name="sum">1</property>
  </transition>
  <transition id="transition12">
   <property name="a_track">0</property>
   <property name="b_track">6</property>
   <property name="compositing">0</property>
   <property name="distort">0</property>
   <property name="rotate_center">0</property>
   <property name="mlt_service">qtblend</property>
   <property name="kdenlive_id">qtblend</property>
   <property name="internal_added">237</property>
   <property name="always_active">1</property>
  </transition>
  <transition id="transition13">
   <property name="a_track">0</property>
   <property name="b_track">7</property>
   <property name="compositing">0</property>
   <property name="distort">0</property>
   <property name="rotate_center">0</property>
   <property name="mlt_service">qtblend</property>
   <property name="kdenlive_id">qtblend</property>
   <property name="internal_added">237</property>
   <property name="always_active">1</property>
  </transition>
  <transition id="transition14">
   <property name="a_track">0</property>
   <property name="b_track">8</property>
   <property name="compositing">0</property>
   <property name="distort">0</property>
   <property name="rotate_center">0</property>
   <property name="mlt_service">qtblend</property>
   <property name="kdenlive_id">qtblend</property>
   <property name="internal_added">237</property>
   <property name="always_active">1</property>
  </transition>
  <transition id="transition15">
   <property name="a_track">0</property>
   <property name="b_track">9</property>
   <property name="compositing">0</property>
   <property name="distort">0</property>
   <property name="rotate_center">0</property>
   <property name="mlt_service">qtblend</property>
   <property name="kdenlive_id">qtblend</property>
   <property name="internal_added">237</property>
   <property name="always_active">1</property>
  </transition>
  <transition id="transition16">
   <property name="a_track">0</property>
   <property name="b_track">10</property>
   <property name="compositing">0</property>
   <property name="distort">0</property>
   <property name="rotate_center">0</property>
   <property name="mlt_service">qtblend</property>
   <property name="kdenlive_id">qtblend</property>
   <property name="internal_added">237</property>
   <property name="always_active">1</property>
  </transition>
 </tractor>
</mlt>
